<svg xmlns="http://www.w3.org/2000/svg" viewBox="0 0 64 64">
  <rect width="64" height="64" rx="8" fill="#0D1542"/>
  <!-- E -->
  <path d="M8 12h16v3H12v14h10v3H12v15h12v3H8V12Z" fill="white"/>
  <!-- B -->
  <path d="M32 12h11c5.5 0 10 3.8 10 9 0 4-2.4 7.2-5.8 8.5 4.2 1.1 7.2 5 7.2 9.2 0 6-4.8 11-11 11H32V12Zm4 3v13.5h7c4 0 7-3 7-6.8 0-3.8-3-6.7-7-6.7h-7Zm0 16.5V47h8c4.4 0 7.6-3.4 7.6-7.5 0-4.2-3.2-7.5-7.6-7.5h-8Z" fill="white"/>
  <!-- Bar -->
  <rect x="4" y="27" width="56" height="5.5" fill="white" opacity="0.15"/>
  <rect x="4" y="27.8" width="56" height="4" fill="#0D1542"/>
  <rect x="4" y="27.8" width="56" height="4" fill="white" opacity="0.95"/>
</svg>
